<svg xmlns="http://www.w3.org/2000/svg" xmlns:xlink="http://www.w3.org/1999/xlink" id="Layer_1" x="0px" y="0px" viewBox="-272 394.9 51 52" style="enable-background:new -272 394.9 51 52;" xml:space="preserve">
<title>Asset 120</title>
<desc>Created with Sketch.</desc>
<g>
	<path fill="#FF4438" d="M-254.1,436.6c-2.7,0-5-0.6-7-1.9c-1.9-1.3-3.4-3.1-4.5-5.3c-1-2.3-1.6-4.9-1.6-8c0-3,0.5-5.6,1.6-7.9   c1.1-2.3,2.5-4.1,4.5-5.4c1.9-1.3,4.3-1.9,7-1.9c2.7,0,5,0.6,7,1.9c1.9,1.3,3.4,3.1,4.5,5.4c1,2.3,1.6,4.9,1.6,7.9   c0,3-0.5,5.7-1.6,8c-1.1,2.3-2.5,4.1-4.5,5.3C-249,436-251.4,436.6-254.1,436.6z M-254.1,431.8c2.2,0,4-0.9,5.4-2.8   c1.4-1.8,2.1-4.4,2.1-7.6c0-3.2-0.7-5.8-2.1-7.6c-1.4-1.8-3.2-2.8-5.4-2.8c-2.2,0-4.1,0.9-5.4,2.8c-1.4,1.8-2.1,4.4-2.1,7.6   c0,3.2,0.7,5.8,2.1,7.6C-258.1,430.8-256.3,431.8-254.1,431.8z"></path>
	<path fill="#FF4438" d="M-233.1,436.1v-23.3l-4.8,1.1v-4.1l7.1-3.1h3.3v29.4H-233.1z"></path>
</g>
</svg>