<svg xmlns="http://www.w3.org/2000/svg" xmlns:xlink="http://www.w3.org/1999/xlink" width="65px" height="65px" viewBox="0 0 65 65"><title>Asset 120</title><desc>Created with Sketch.</desc><g id="Design" stroke="none" stroke-width="1" fill="none" fill-rule="evenodd"><g id="Home_Design-v1" transform="translate(-808.000000, -3854.000000)"><g id="Asset-120" transform="translate(808.000000, 3854.000000)"><circle id="Oval" stroke="#FF182F" stroke-width="1.42" cx="32.5509804" cy="32.5509804" r="31.6460784"></circle><path d="M46.4814129,36.4382353 C46.4814129,28.9568627 33.7362745,15.5745098 33.2137255,15.0009804 C32.8487185,14.682121 32.3042226,14.682121 31.9392157,15.0009804 C31.3911765,15.5745098 18.6843137,29.0205882 18.6843137,36.4382353 C18.6982038,44.0991072 24.890211,50.3138791 32.5509804,50.3558824 C33.0648218,50.3558824 33.4813725,49.9393316 33.4813725,49.4254902 L33.4813725,27.0705882 L31.6205882,27.0705882 L31.6205882,35.4441176 L28.1411765,31.977451 L26.8666667,33.2519608 L31.6588235,38.0441176 L31.6588235,48.4313725 L31.4676471,48.4313725 C25.281877,47.824289 20.5551778,42.6408773 20.5196078,36.4254902 C20.5196078,30.3205882 31.2382353,18.4676471 32.4617647,17.1294118 L32.5892157,16.9892157 L32.7166667,17.1294118 C33.8892157,18.4803922 44.6078431,30.3205882 44.6078431,36.4382353 C44.6217168,41.319079 41.6793615,45.7225354 37.1647059,47.577451 L37.8529412,49.3107843 C43.0820822,47.1773801 46.4949438,42.085814 46.4814129,36.4382353 Z" id="Path" fill="#FF182F" fill-rule="nonzero"></path><line x1="32.6911765" y1="41.9696078" x2="37.8401961" y2="36.8078431" id="Path" stroke="#FF182F" stroke-width="1.42"></line></g></g></g></svg>