<svg xmlns="http://www.w3.org/2000/svg" xmlns:xlink="http://www.w3.org/1999/xlink" id="Layer_1" x="0px" y="0px" viewBox="-272 394.9 51 52" style="enable-background:new -272 394.9 51 52;" xml:space="preserve">
<title>Asset 120</title>
<desc>Created with Sketch.</desc>
<g>
	<path fill="#FF4438" d="M-258.5,438c-2.7,0-5-0.6-7-1.9c-1.9-1.3-3.4-3.1-4.5-5.3c-1-2.3-1.6-4.9-1.6-8c0-3,0.5-5.6,1.6-7.9   c1.1-2.3,2.5-4.1,4.5-5.4c1.9-1.3,4.3-1.9,7-1.9c2.7,0,5,0.6,7,1.9c1.9,1.3,3.4,3.1,4.5,5.4c1,2.3,1.6,4.9,1.6,7.9   c0,3-0.5,5.7-1.6,8c-1.1,2.3-2.5,4.1-4.5,5.3C-253.4,437.3-255.7,438-258.5,438z M-258.5,433.1c2.2,0,4-0.9,5.4-2.8   c1.4-1.8,2.1-4.4,2.1-7.6c0-3.2-0.7-5.8-2.1-7.6c-1.4-1.8-3.2-2.8-5.4-2.8c-2.2,0-4.1,0.9-5.4,2.8c-1.4,1.8-2.1,4.4-2.1,7.6   c0,3.2,0.7,5.8,2.1,7.6C-262.5,432.2-260.7,433.1-258.5,433.1z"></path>
	<path fill="#FF4438" d="M-241.6,437.5v-3.9c1.8-1.5,3.5-3,5.2-4.4c1.7-1.5,3.2-2.9,4.5-4.3c1.3-1.4,2.4-2.8,3.2-4.2c0.8-1.4,1.2-2.7,1.2-4   c0-1.2-0.3-2.3-1-3.2s-1.7-1.4-3.3-1.4c-1.5,0-2.7,0.5-3.5,1.5c-0.8,1-1.2,2.2-1.2,3.7h-5.2c0.1-2.2,0.5-4,1.4-5.4   c0.9-1.4,2.1-2.5,3.6-3.2s3.2-1.1,5-1.1c3,0,5.3,0.8,7,2.5c1.7,1.6,2.5,3.8,2.5,6.4c0,1.6-0.4,3.2-1.1,4.7s-1.7,3-2.9,4.5   s-2.5,2.8-3.9,4c-1.4,1.2-2.8,2.4-4.1,3.5h12.7v4.4H-241.6z"></path>
</g>
</svg>