<svg xmlns="http://www.w3.org/2000/svg" xmlns:xlink="http://www.w3.org/1999/xlink" id="Layer_1" x="0px" y="0px" viewBox="-272 394.9 51 52" style="enable-background:new -272 394.9 51 52;" xml:space="preserve">
<title>Asset 120</title>
<desc>Created with Sketch.</desc>
<g>
	<path fill="#FF4438" d="M-258.6,436.3c-2.7,0-5-0.6-7-1.9c-1.9-1.3-3.4-3.1-4.5-5.3c-1-2.3-1.6-4.9-1.6-8c0-3,0.5-5.6,1.6-7.9   c1.1-2.3,2.5-4.1,4.5-5.4c1.9-1.3,4.3-1.9,7-1.9c2.7,0,5,0.6,7,1.9c1.9,1.3,3.4,3.1,4.5,5.4c1,2.3,1.6,4.9,1.6,7.9   c0,3-0.5,5.7-1.6,8c-1.1,2.3-2.5,4.1-4.5,5.3C-253.5,435.7-255.9,436.3-258.6,436.3z M-258.6,431.5c2.2,0,4-0.9,5.4-2.8   c1.4-1.8,2.1-4.4,2.1-7.6c0-3.2-0.7-5.8-2.1-7.6c-1.4-1.8-3.2-2.8-5.4-2.8c-2.2,0-4.1,0.9-5.4,2.8c-1.4,1.8-2.1,4.4-2.1,7.6   c0,3.2,0.7,5.8,2.1,7.6C-262.6,430.6-260.8,431.5-258.6,431.5z"></path>
	<path fill="#FF4438" d="M-231.2,436.3c-1.9,0-3.7-0.3-5.3-1c-1.6-0.7-2.8-1.7-3.8-3.2c-1-1.4-1.5-3.2-1.5-5.4h5.3c0,1.4,0.5,2.6,1.4,3.6   s2.2,1.4,3.8,1.4c1.6,0,2.8-0.4,3.6-1.3c0.8-0.9,1.3-2,1.3-3.3c0-1.5-0.6-2.7-1.7-3.5c-1.1-0.8-2.5-1.2-4.3-1.2h-2.2v-4.4h2.2   c1.4,0,2.6-0.3,3.6-1c1-0.7,1.4-1.7,1.4-3c0-1.1-0.4-2-1.1-2.6c-0.7-0.7-1.7-1-3-1c-1.4,0-2.4,0.4-3.2,1.2c-0.8,0.8-1.2,1.8-1.3,3   h-5.3c0.1-2.7,1.1-4.9,2.8-6.4c1.8-1.6,4.1-2.4,6.9-2.4c2,0,3.7,0.4,5.1,1.1s2.4,1.7,3.1,2.8c0.7,1.2,1.1,2.5,1.1,3.9   c0,1.7-0.5,3-1.4,4.2c-0.9,1.1-2,1.9-3.4,2.3c1.7,0.3,3,1.1,4,2.4c1,1.3,1.6,2.9,1.6,4.8c0,1.6-0.4,3.1-1.2,4.5   c-0.8,1.3-1.9,2.4-3.4,3.2C-227.2,435.9-229,436.3-231.2,436.3z"></path>
</g>
</svg>