<svg xmlns="http://www.w3.org/2000/svg" xmlns:xlink="http://www.w3.org/1999/xlink" id="Layer_1" x="0px" y="0px" viewBox="-272 394.9 51 52" style="enable-background:new -272 394.9 51 52;" xml:space="preserve">
<title>Asset 120</title>
<desc>Created with Sketch.</desc>
<g>
	<path fill="#FF4438" d="M-259.4,436.3c-2.6,0-4.8-0.6-6.6-1.8c-1.8-1.2-3.3-2.9-4.3-5.1c-1-2.2-1.5-4.7-1.5-7.6c0-2.9,0.5-5.4,1.5-7.6   c1-2.2,2.4-3.9,4.3-5.1c1.8-1.2,4.1-1.8,6.6-1.8c2.6,0,4.8,0.6,6.6,1.8c1.8,1.2,3.3,2.9,4.3,5.1c1,2.2,1.5,4.7,1.5,7.6   c0,2.9-0.5,5.4-1.5,7.6c-1,2.2-2.4,3.9-4.3,5.1C-254.6,435.7-256.8,436.3-259.4,436.3z M-259.4,431.7c2.1,0,3.8-0.9,5.2-2.6   s2-4.2,2-7.2c0-3.1-0.7-5.5-2-7.2c-1.3-1.8-3.1-2.6-5.2-2.6c-2.1,0-3.9,0.9-5.2,2.6c-1.3,1.8-2,4.2-2,7.2c0,3.1,0.7,5.5,2,7.2   S-261.6,431.7-259.4,431.7z"></path>
	<path fill="#FF4438" d="M-229.7,435.8v-5.2h-13.8v-4.1l13.1-18.7h5.8v18.4h3.7v4.4h-3.7v5.2H-229.7z M-238,426.2h8.6v-12.7L-238,426.2z"></path>
</g>
</svg>