<svg xmlns="http://www.w3.org/2000/svg" xmlns:xlink="http://www.w3.org/1999/xlink" id="Layer_1" x="0px" y="0px" viewBox="-272 394.9 51 52" style="enable-background:new -272 394.9 51 52;" xml:space="preserve">
<title>Asset 120</title>
<desc>Created with Sketch.</desc>
<g>
	<path fill="#FF4438" d="M-259.4,436.3c-2.6,0-4.8-0.6-6.6-1.8c-1.8-1.2-3.3-2.9-4.3-5.1c-1-2.2-1.5-4.7-1.5-7.6c0-2.9,0.5-5.4,1.5-7.6   c1-2.2,2.4-3.9,4.3-5.1c1.8-1.2,4.1-1.8,6.6-1.8c2.6,0,4.8,0.6,6.6,1.8c1.8,1.2,3.3,2.9,4.3,5.1c1,2.2,1.5,4.7,1.5,7.6   c0,2.9-0.5,5.4-1.5,7.6c-1,2.2-2.4,3.9-4.3,5.1C-254.6,435.7-256.8,436.3-259.4,436.3z M-259.4,431.7c2.1,0,3.8-0.9,5.2-2.6   s2-4.2,2-7.2c0-3.1-0.7-5.5-2-7.2c-1.3-1.8-3.1-2.6-5.2-2.6c-2.1,0-3.9,0.9-5.2,2.6c-1.3,1.8-2,4.2-2,7.2c0,3.1,0.7,5.5,2,7.2   S-261.6,431.7-259.4,431.7z"></path>
	<path fill="#FF4438" d="M-232.5,436.3c-2.1,0-3.8-0.4-5.3-1.1c-1.5-0.7-2.6-1.7-3.5-3c-0.8-1.3-1.3-2.7-1.5-4.3h5c0.2,1.1,0.8,2.1,1.8,2.9   c0.9,0.8,2.1,1.1,3.5,1.1c1.5,0,2.7-0.5,3.7-1.6c0.9-1.1,1.4-2.5,1.4-4.1c0-1.7-0.5-3-1.4-4c-0.9-1-2.1-1.5-3.6-1.5   c-1.2,0-2.2,0.3-3.1,0.9c-0.9,0.6-1.5,1.3-1.9,2.2h-4.9l2.4-16h15.5v4.5h-11.7l-1.3,6.5c0.6-0.6,1.4-1.2,2.4-1.6   c1-0.4,2.1-0.6,3.4-0.6c2,0,3.7,0.4,5,1.3c1.3,0.9,2.3,2.1,3,3.5c0.7,1.5,1,3,1,4.7c0,1.9-0.4,3.7-1.3,5.2c-0.8,1.5-2,2.7-3.5,3.6   C-228.8,435.9-230.5,436.3-232.5,436.3z"></path>
</g>
</svg>