<svg xmlns="http://www.w3.org/2000/svg" xmlns:xlink="http://www.w3.org/1999/xlink" id="Layer_1" x="0px" y="0px" viewBox="-272 394.9 51 52" style="enable-background:new -272 394.9 51 52;" xml:space="preserve">
<title>Asset 120</title>
<desc>Created with Sketch.</desc>
<g>
	<path fill="#FF4438" d="M-259.4,436.3c-2.6,0-4.8-0.6-6.6-1.8c-1.8-1.2-3.3-2.9-4.3-5.1c-1-2.2-1.5-4.7-1.5-7.6c0-2.9,0.5-5.4,1.5-7.6   c1-2.2,2.4-3.9,4.3-5.1c1.8-1.2,4.1-1.8,6.6-1.8c2.6,0,4.8,0.6,6.6,1.8c1.8,1.2,3.3,2.9,4.3,5.1c1,2.2,1.5,4.7,1.5,7.6   c0,2.9-0.5,5.4-1.5,7.6c-1,2.2-2.4,3.9-4.3,5.1C-254.6,435.7-256.8,436.3-259.4,436.3z M-259.4,431.7c2.1,0,3.8-0.9,5.2-2.6   s2-4.2,2-7.2c0-3.1-0.7-5.5-2-7.2c-1.3-1.8-3.1-2.6-5.2-2.6c-2.1,0-3.9,0.9-5.2,2.6c-1.3,1.8-2,4.2-2,7.2c0,3.1,0.7,5.5,2,7.2   S-261.6,431.7-259.4,431.7z"></path>
	<path fill="#FF4438" d="M-232,436.3c-2.1,0-3.9-0.4-5.3-1.2c-1.4-0.8-2.6-1.8-3.5-3.1c-0.9-1.3-1.5-2.8-1.9-4.4c-0.4-1.6-0.6-3.2-0.6-4.9   c0-3.1,0.4-5.8,1.3-8.1c0.9-2.3,2.1-4.1,3.8-5.4c1.7-1.3,3.7-1.9,6-1.9c1.9,0,3.6,0.4,4.9,1.1c1.3,0.8,2.4,1.8,3.1,3   c0.7,1.2,1.2,2.5,1.3,4h-4.8c-0.2-1.2-0.8-2.2-1.6-2.8c-0.8-0.7-1.8-1-3.1-1c-1.8,0-3.2,0.8-4.3,2.5c-1.1,1.6-1.7,4.1-1.8,7.5   c0.6-1.1,1.6-2,2.9-2.7s2.7-1.1,4.3-1.1c1.5,0,3,0.4,4.4,1.1c1.4,0.7,2.5,1.8,3.3,3.2c0.8,1.4,1.3,3,1.3,4.8c0,1.7-0.4,3.2-1.2,4.7   c-0.8,1.4-2,2.6-3.4,3.5C-228.3,435.9-230,436.3-232,436.3z M-232.3,431.9c1.5,0,2.7-0.5,3.7-1.4c1-0.9,1.5-2.1,1.5-3.5   c0-1.5-0.5-2.7-1.5-3.6s-2.2-1.4-3.8-1.4c-1,0-1.9,0.2-2.7,0.7c-0.8,0.4-1.4,1-1.9,1.8c-0.5,0.7-0.7,1.6-0.7,2.5   c0,1.4,0.5,2.6,1.5,3.6S-233.8,431.9-232.3,431.9z"></path>
</g>
</svg>