<svg width="40" height="40" viewBox="0 0 40 40" fill="none" xmlns="http://www.w3.org/2000/svg">
<circle cx="20" cy="20" r="19.5" stroke="#E4E7E9"/>
<path fill-rule="evenodd" clip-rule="evenodd" d="M20.9985 13C20.9985 12.4477 20.5508 12 19.9985 12C19.4463 12 18.9985 12.4477 18.9985 13V18.9983H13C12.4477 18.9983 12 19.446 12 19.9983C12 20.5506 12.4477 20.9983 13 20.9983H18.9985V26.9966C18.9985 27.5489 19.4463 27.9966 19.9985 27.9966C20.5508 27.9966 20.9985 27.5489 20.9985 26.9966V20.9983H26.9966C27.5489 20.9983 27.9966 20.5506 27.9966 19.9983C27.9966 19.446 27.5489 18.9983 26.9966 18.9983H20.9985V13Z" fill="#FF4438"/>
</svg>
