<svg width="60" height="60" viewBox="0 0 60 60" fill="none" xmlns="http://www.w3.org/2000/svg">
<path d="M30.0467 59.2595C46.1799 59.2595 59.2585 46.1809 59.2585 30.0477C59.2585 13.9145 46.1799 0.835938 30.0467 0.835938C13.9135 0.835938 0.834961 13.9145 0.834961 30.0477C0.834961 46.1809 13.9135 59.2595 30.0467 59.2595Z" stroke="#FF4438"/>
<path d="M42.9059 33.6359C42.9059 26.7301 31.1412 14.3771 30.6588 13.8477C30.3219 13.5534 29.8193 13.5534 29.4824 13.8477C28.9765 14.3771 17.2471 26.7889 17.2471 33.6359C17.2599 40.7075 22.9756 46.4442 30.0471 46.483C30.5214 46.483 30.9059 46.0985 30.9059 45.6242V24.9889H29.1882V32.7183L25.9765 29.5183L24.8 30.6948L29.2235 35.1183V44.7065H29.0471C23.3371 44.1461 18.974 39.3615 18.9412 33.6242C18.9412 27.9889 28.8353 17.0477 29.9647 15.8124L30.0824 15.683L30.2 15.8124C31.2824 17.0595 41.1765 27.9889 41.1765 33.6359C41.1893 38.1413 38.4733 42.2061 34.3059 43.9183L34.9412 45.5183C39.7681 43.549 42.9184 38.8491 42.9059 33.6359Z" fill="#FF4438"/>
<path d="M30.1758 38.7413L34.9287 33.9766" stroke="#FF4438" stroke-width="1.42"/>
</svg>
