<svg width="16" height="17" viewBox="0 0 16 17" fill="none" xmlns="http://www.w3.org/2000/svg">
<path fill-rule="evenodd" clip-rule="evenodd" d="M3.52675 7.73242L0.576987 12.3745L0.0888672 13.1427H0.998994L3.40195 13.1427L4.30398 15.2326L4.67836 16.1L5.18505 15.3027L7.85696 11.0978L10.5289 15.3027L11.0449 16.1148L11.4129 15.2257L12.3264 13.0184L14.6888 13.142L15.6568 13.1926L15.1369 12.3745L12.1872 7.73242L11.3432 8.26874L13.773 12.0927L12.0257 12.0013L11.6727 11.9828L11.5375 12.3094L10.8568 13.9542L8.42312 10.1243L7.85696 10.484L7.2908 10.1243L4.84774 13.9689L4.1898 12.4445L4.05952 12.1427L3.73073 12.1427H1.90912L4.37076 8.26874L3.52675 7.73242Z" fill="#FF4438"/>
<circle cx="8" cy="6" r="4.5" fill="white" stroke="#FF4438"/>
</svg>
