<svg xmlns="http://www.w3.org/2000/svg" xmlns:xlink="http://www.w3.org/1999/xlink" width="70px" height="70px" viewBox="0 0 70 70"><title>Group 17</title><desc>Created with Sketch.</desc><g id="Design" stroke="none" stroke-width="1" fill="none" fill-rule="evenodd"><g id="Produkt-Detail" transform="translate(-615.000000, -4582.000000)"><g id="Group-17" transform="translate(615.000000, 4582.000000)"><circle id="Oval-Copy-6" fill-opacity="0.05" fill="#FF4438" cx="35" cy="35" r="35"></circle><g id="Asset-210" transform="translate(21.000000, 19.000000)" stroke="#FF182F" stroke-width="1.42"><rect id="Rectangle" transform="translate(13.797927, 17.501549) rotate(28.260000) translate(-13.797927, -17.501549) " x="6.83292658" y="1.83654863" width="13.93" height="31.33" rx="6.965"></rect><path d="M7.45,14.59 L7.45,14.59 C12.1407995,14.9291393 16.48319,17.190801 19.45,20.84 L19.74,21.19 L24.05,13.19 C24.9683693,11.5511179 25.197726,9.61442935 24.6875684,7.80637074 C24.1774108,5.99831212 22.9695705,4.46713974 21.33,3.55 L21.33,3.55 C19.662253,2.68022202 17.7169495,2.50982423 15.9233849,3.07641053 C14.1298204,3.64299682 12.6354299,4.89999251 11.77,6.57 L7.45,14.59 Z" id="Path"></path></g></g></g></g></svg>