<svg xmlns="http://www.w3.org/2000/svg" viewBox="0 0 512 512"><defs><style>.cls-1{fill:#f4f4f4;}.cls-2{fill:#fe4b55;}.cls-3{fill:#41479a;}</style></defs><g id="Layer_2" data-name="Layer 2"><g id="flag-icon-css-gb"><path class="cls-1" d="M170,.1H341c.08,1.82.23,3.65.23,5.47q0,250.43,0,500.86c0,1.82-.15,3.65-.23,5.47H170c.11-2,.31-4,.31-5.95q0-249.94,0-499.9C170.34,4.07,170.14,2.08,170,.1Z"/><path class="cls-2" d="M341,511.9c.08-1.82.23-3.65.23-5.47q0-250.42,0-500.86c0-1.82-.15-3.65-.23-5.47Q424.38.1,507.8,0c3.2,0,4.2.35,4.2,4q-.18,252,0,504c0,3.62-1,4-4.2,4Q424.39,511.82,341,511.9Z"/><path class="cls-3" d="M170,.1c.11,2,.31,4,.31,6q0,249.95,0,499.9c0,2-.2,4-.31,5.95q-83,0-165.94.1C.67,512,0,511.33,0,507.9Q.17,256,0,4.1C0,.67.67,0,4.09,0Q87.06.21,170,.1Z"/></g></g></svg>