<svg width="18" height="22" viewBox="0 0 18 22" fill="none" xmlns="http://www.w3.org/2000/svg">
<path d="M9 2.5C13.1421 2.5 16.5 5.85786 16.5 10H17.5C17.5 5.30558 13.6944 1.5 9 1.5V2.5ZM16.5 10C16.5 14.1421 13.1421 17.5 9 17.5V18.5C13.6944 18.5 17.5 14.6944 17.5 10H16.5ZM9 17.5C4.85786 17.5 1.5 14.1421 1.5 10H0.5C0.5 14.6944 4.30558 18.5 9 18.5V17.5ZM1.5 10C1.5 5.85786 4.85786 2.5 9 2.5V1.5C4.30558 1.5 0.5 5.30558 0.5 10H1.5Z" fill="#FFF2F0"/>
<path fill-rule="evenodd" clip-rule="evenodd" d="M11.2929 7.29289L8 10.5858L6.70711 9.29289C6.31658 8.90237 5.68342 8.90237 5.29289 9.29289C4.90237 9.68342 4.90237 10.3166 5.29289 10.7071L7.29289 12.7071C7.68342 13.0976 8.31658 13.0976 8.70711 12.7071L12.7071 8.70711C13.0976 8.31658 13.0976 7.68342 12.7071 7.29289C12.3166 6.90237 11.6834 6.90237 11.2929 7.29289Z" fill="#FF4438"/>
</svg>
