<svg xmlns="http://www.w3.org/2000/svg" viewBox="0 0 700 92.86"><defs><style>.cls-1{fill:#222;}.cls-2{fill:#ff4438;}</style></defs><g id="Layer_2" data-name="Layer 2"><g id="Layer_1-2" data-name="Layer 1"><path class="cls-1" d="M198,53.29,177,18.22h-7.66V74.55h7.24V31.86l19.17,32.08a2.28,2.28,0,0,0,3.91,0l19.18-32.08V74.55h7.49V18.22h-7.5Z"></path><rect class="cls-1" x="254" y="18.22" width="7.49" height="56.33"></rect><path class="cls-1" d="M332.61,61.46,298.4,20a4.91,4.91,0,0,0-3.79-1.79h-4.34V74.55h7.5V31.32L332,72.77a4.92,4.92,0,0,0,3.79,1.78h4.34V18.22h-7.49Z"></path><path class="cls-1" d="M388.43,18.22H364.81V74.55h23.62c10.81,0,16.26-3,21.58-7.77a28.07,28.07,0,0,0,8.29-20.43,28.26,28.26,0,0,0-7.89-20C405.85,22.11,400,18.22,388.43,18.22Zm16,43.65c-4.42,3.83-8.13,5.77-16.13,5.77h-16V25.13h16c8.23,0,12.2,2.17,16.24,5.89a21.44,21.44,0,0,1,6.14,15.33A22.08,22.08,0,0,1,404.39,61.87Z"></path><polygon class="cls-1" points="440.37 74.55 447.87 74.55 447.87 49.22 470.78 49.22 470.78 42.31 447.87 42.31 447.87 25.13 484.62 25.13 484.62 18.22 440.37 18.22 440.37 74.55"></polygon><polygon class="cls-1" points="507.56 18.22 500.07 18.22 500.07 74.55 542.57 74.55 542.57 67.64 507.56 67.64 507.56 18.22"></polygon><path class="cls-1" d="M581.81,17C564.83,17,551,30.11,551,46.26c0,16.61,13.53,29.63,30.79,29.63s31-13.29,31-29.63C612.85,30.11,598.92,17,581.81,17Zm0,52a22.59,22.59,0,0,1-23-22.72c0-12.59,10.08-22.46,23-22.46s23.3,10.08,23.3,22.46C605.11,59,594.87,69,581.81,69Z"></path><path class="cls-1" d="M692.16,18.22,678.1,62.64,664.79,21.07a4.09,4.09,0,0,0-7.79,0L643.73,62.76l-14-44.54h-8.18l17,52.85a5,5,0,0,0,4.77,3.48h.08a5,5,0,0,0,4.78-3.48l12.6-39.3,12.6,39.3a5,5,0,0,0,4.78,3.48h0a5,5,0,0,0,4.77-3.47L700,18.22Z"></path><path class="cls-2" d="M121.21,64.33,93.79,6.7A11.14,11.14,0,0,0,74,5.4L62,24.69,49.17,5.27A11.2,11.2,0,0,0,29.45,6.76L2,64.39a20.7,20.7,0,0,0,.12,18.14,18.09,18.09,0,0,0,12.54,10,16.74,16.74,0,0,0,3.39.35,17.14,17.14,0,0,0,11.14-4.18,17.66,17.66,0,0,0,3-3.38L53.94,53.37a7.79,7.79,0,0,0-2.11-10.8l-1-.65-26,38.27a9.85,9.85,0,0,1-1.46,1.69,8,8,0,0,1-6.91,1.86A9.57,9.57,0,0,1,9.54,77a12.37,12.37,0,0,1,.77-9.11L37.54,10.61A2.53,2.53,0,0,1,39.77,9a2.41,2.41,0,0,1,1.92,1.17L90.8,84.82a17.78,17.78,0,0,0,5.28,5.33,16.74,16.74,0,0,0,13.65,2,18.14,18.14,0,0,0,11.36-9.7A20.7,20.7,0,0,0,121.21,64.33Zm-8.16,14.18a9.26,9.26,0,0,1-5.74,5,7.89,7.89,0,0,1-6.44-1,8.86,8.86,0,0,1-2.58-2.68l-30.92-47L81.6,10.18A2.37,2.37,0,0,1,83.54,9a2.52,2.52,0,0,1,2.16,1.59l27.42,57.63A11.78,11.78,0,0,1,113.05,78.51Z"></path></g></g></svg>