<svg width="62" height="62" viewBox="0 0 62 62" fill="none" xmlns="http://www.w3.org/2000/svg">
<path d="M31 61C47.5685 61 61 47.5685 61 31C61 14.4315 47.5685 1 31 1C14.4315 1 1 14.4315 1 31C1 47.5685 14.4315 61 31 61Z" stroke="#FF4438"/>
<path fill-rule="evenodd" clip-rule="evenodd" d="M34.6388 12.9902L34.8114 14.2101C35.3199 17.8022 37.2532 20.7342 39.3116 23.8559C39.3896 23.9742 39.4679 24.0929 39.5462 24.2118C41.6601 27.4218 43.8364 30.8464 44.1921 35.2169L44.1922 35.2177C44.5373 39.5157 42.3612 43.158 39.2047 45.4963C36.0575 47.8277 31.8631 48.9227 28.0161 48.0934C18.0035 45.9742 14.3414 33.2734 21.4838 26.0451C22.083 25.4123 22.7577 24.8556 23.4928 24.3874L24.0192 24.0521L24.4446 24.509L23.8957 25.02C24.4446 24.509 24.445 24.5094 24.4454 24.5098L24.4462 24.5107L24.4479 24.5126L24.4517 24.5167L24.4607 24.5268C24.4673 24.5342 24.4751 24.5432 24.4839 24.5536C24.5015 24.5746 24.5234 24.6017 24.5486 24.6351C24.599 24.7019 24.6627 24.7939 24.732 24.9122C24.8708 25.1492 25.0314 25.4902 25.1542 25.9429C25.4013 26.8543 25.4845 28.18 24.98 29.9716L24.9798 29.9725C24.3599 32.1635 25.174 33.6915 26.299 34.3696C27.4367 35.0553 29.0344 34.9712 30.265 33.6241L30.2662 33.6228C31.319 32.476 31.202 30.9617 30.6159 29.025C30.4461 28.4641 30.2624 27.9408 30.0742 27.4049C29.9288 26.9909 29.7808 26.5693 29.6345 26.117C29.3226 25.1526 29.0551 24.1438 29.042 23.1833C28.8522 19.4466 30.5839 15.8713 33.6344 13.7039L34.6388 12.9902ZM23.6385 26.1151C23.2571 26.4084 22.899 26.7315 22.5679 27.0818L22.5562 27.0942L22.5561 27.094C16.2232 33.495 19.4962 44.7579 28.328 46.6262L28.3309 46.6268C31.7086 47.3554 35.4696 46.3965 38.3118 44.291C41.145 42.1922 42.9921 39.0142 42.697 35.338C42.376 31.3963 40.4203 28.2665 38.2934 25.0368C38.1968 24.8901 38.0998 24.7431 38.0025 24.5958C36.2106 21.8811 34.3443 19.0539 33.5633 15.6894C31.5172 17.5798 30.3934 20.2973 30.5407 23.1203L30.5415 23.1358L30.5417 23.1513C30.5495 23.8776 30.7564 24.7115 31.0617 25.6554C31.1796 26.0199 31.3207 26.4237 31.4661 26.8399C31.67 27.4237 31.8825 28.0319 32.0516 28.5905C32.6465 30.5562 33.0247 32.8353 31.3718 34.6365C29.6665 36.5027 27.2835 36.7144 25.5247 35.6543C23.7532 34.5866 22.755 32.3271 23.5363 29.5647C23.9741 28.0097 23.8761 26.9613 23.7064 26.3354C23.6849 26.2558 23.662 26.1825 23.6385 26.1151Z" fill="#FF4438"/>
</svg>
