<svg xmlns="http://www.w3.org/2000/svg" xmlns:xlink="http://www.w3.org/1999/xlink" width="51px" height="51px" viewBox="0 0 51 51"><title>Asset 170</title><desc>Created with Sketch.</desc><g id="Design" stroke="none" stroke-width="1" fill="none" fill-rule="evenodd"><g id="Produkt-Detail" transform="translate(-885.000000, -792.000000)" stroke="#FF182F"><g id="Group-3" transform="translate(855.000000, 767.000000)"><g id="Asset-170" transform="translate(30.000000, 25.000000)"><circle id="Oval" stroke-width="1.42" cx="25.0392157" cy="25.0392157" r="24.3431373"></circle><path d="M25,37.1666667 C18.4337563,36.9799908 13.2076634,31.6032105 13.2076634,25.0343137 C13.2076634,18.465417 18.4337563,13.0886367 25,12.9019281 C27.7018876,12.8956548 30.3269674,13.8006165 32.4509804,15.4705882 L31.6372549,16.5098039 C29.743503,15.0269345 27.4052244,14.2256337 25,14.2352941 C20.102245,14.2414869 15.8236907,17.547359 14.5817783,22.2850479 C13.3398659,27.0227368 15.4464976,32.0023874 19.7113979,34.4104296 C23.9762983,36.8184719 29.3283515,36.0501338 32.743575,32.5395369 C36.1587985,29.02894 36.7794701,23.6577592 34.254902,19.4607843 C34.0653925,19.1494473 34.1641532,18.743431 34.4754902,18.5539216 C34.7868272,18.3644121 35.1928435,18.4631728 35.3823529,18.7745098 C37.6419097,22.5198337 37.7095082,27.1917345 35.5592583,31.0008647 C33.4090083,34.8099949 29.3741339,37.166054 25,37.1666667 L25,37.1666667 Z" id="Path" stroke-width="0.14" fill="#FF182F" fill-rule="nonzero"></path><polygon id="Path" stroke-width="0.14" fill="#FF182F" fill-rule="nonzero" points="24.9901961 30.1960784 18.2941176 23.5098039 19.2254902 22.5686275 24.9803922 28.3235294 38.9019608 13.9509804 39.8529412 14.872549"></polygon></g></g></g></g></svg>