<svg xmlns="http://www.w3.org/2000/svg" xmlns:xlink="http://www.w3.org/1999/xlink" width="51px" height="51px" viewBox="0 0 51 51"><title>Asset 180</title><desc>Created with Sketch.</desc><g id="Design" stroke="none" stroke-width="1" fill="none" fill-rule="evenodd"><g id="Produkt-Detail" transform="translate(-1074.000000, -792.000000)" stroke="#FF182F"><g id="Group-3" transform="translate(855.000000, 767.000000)"><g id="Asset-180" transform="translate(219.000000, 25.000000)"><circle id="Oval" stroke-width="1.42" cx="25.0392157" cy="25.0392157" r="24.3431373"></circle><path d="M42.4117647,27.3431373 L38.8431373,20.9411765 L33.7941176,20.9411765 L33.7941176,15.9803922 L13.2058824,15.9803922 L13.2058824,18.8529412 L10.6568627,18.8529412 L10.6568627,19.6764706 L17.5196078,19.6764706 L17.5196078,18.8529412 L14.0588235,18.8529412 L14.0588235,16.7941176 L32.9705882,16.7941176 L32.9705882,31.8137255 L24.4411765,31.8137255 C24.1727624,30.4313266 22.9621377,29.4331542 21.5539216,29.4331542 C20.1457054,29.4331542 18.9350808,30.4313266 18.6666667,31.8137255 L14.0588235,31.8137255 L14.0588235,28.5098039 L15.872549,28.5098039 L15.872549,27.6960784 L8.73529412,27.6960784 L8.73529412,28.5098039 L13.2352941,28.5098039 L13.2352941,32.627451 L18.627451,32.627451 C18.8958651,34.0098498 20.1064897,35.0080223 21.5147059,35.0080223 C22.922922,35.0080223 24.1335467,34.0098498 24.4019608,32.627451 L34.9117647,32.627451 C35.1801788,34.0098498 36.3908035,35.0080223 37.7990196,35.0080223 C39.2072358,35.0080223 40.4178604,34.0098498 40.6862745,32.627451 L42.6470588,32.627451 L42.6470588,28.3431373 C42.6535394,27.9953667 42.5726368,27.6515307 42.4117647,27.3431373 Z M22.9411765,33.872549 C22.0785978,34.5389526 20.8552343,34.4607915 20.0844763,33.6900335 C19.3137183,32.9192755 19.2355572,31.695912 19.9019608,30.8333333 C19.975256,30.7279809 20.0685234,30.6380445 20.1764706,30.5686275 C21.0390493,29.9022239 22.2624128,29.980385 23.0331708,30.751143 C23.8039287,31.5219009 23.8820898,32.7452644 23.2156863,33.6078431 C23.1391876,33.7104201 23.0464665,33.7998297 22.9411765,33.872549 Z M39.1862745,33.872549 C38.3236958,34.5389526 37.1003323,34.4607915 36.3295743,33.6900335 C35.5588164,32.9192755 35.4806553,31.695912 36.1470588,30.8333333 C36.2203541,30.7279809 36.3136214,30.6380445 36.4215686,30.5686275 C37.2841473,29.9022239 38.5075108,29.980385 39.2782688,30.751143 C40.0490268,31.5219009 40.1271879,32.7452644 39.4607843,33.6078431 C39.3931795,33.7081543 39.3105084,33.7974391 39.2156863,33.872549 L39.1862745,33.872549 Z M40.6862745,31.8137255 C40.4178604,30.4313266 39.2072358,29.4331542 37.7990196,29.4331542 C36.3908035,29.4331542 35.1801788,30.4313266 34.9117647,31.8137255 L33.7941176,31.8137255 L33.7941176,21.7647059 L38.3627451,21.7647059 L41.6960784,27.7352941 C41.7970867,27.9221107 41.8509347,28.1307719 41.8529412,28.3431373 L41.8529412,31.8137255 L40.6862745,31.8137255 Z" id="Shape" stroke-width="0.34" fill="#FF182F" fill-rule="nonzero"></path><path d="M37.8235294,23.3529412 C37.6681867,23.0713795 37.3705679,22.8980825 37.0490196,22.9019608 L35.5686275,22.9019608 C35.2692001,22.901897 35.0249548,23.1417968 35.0196078,23.4411765 L35.0196078,27.5196467 L39.2156863,27.5196467 C39.4086097,27.5219177 39.5880657,27.4209737 39.6862745,27.254902 C39.7843474,27.0850347 39.7843474,26.8757496 39.6862745,26.7058824 L37.8235294,23.3529412 Z M35.7156863,26.8235294 L35.7156863,23.5882324 L37.0490196,23.5882324 C37.1209279,23.5878543 37.1878244,23.625019 37.2254902,23.6862745 L38.9705882,26.8333333 L35.7156863,26.8235294 Z" id="Shape" stroke-width="0.34" fill="#FF182F" fill-rule="nonzero"></path><polygon id="Path" stroke-width="0.34" fill="#FF182F" fill-rule="nonzero" points="13.2352941 20.9705882 13.2352941 24.745098 11.5980392 24.745098 11.5980392 25.5686275 13.2352941 25.5686275 14.0588235 25.5686275 21.5588235 25.5686275 21.5588235 24.745098 14.0588235 24.745098 14.0588235 20.9705882"></polygon><rect id="Rectangle" stroke-width="0.34" fill="#FF182F" fill-rule="nonzero" x="7.40196078" y="21.8039216" width="4.19607843" height="1"></rect></g></g></g></g></svg>