<svg width="40" height="41" viewBox="0 0 40 41" fill="none" xmlns="http://www.w3.org/2000/svg">
<g clip-path="url(#clip0)">
<path d="M20.0229 40.0009C30.7797 40.0009 39.4999 31.2807 39.4999 20.5239C39.4999 9.76702 30.7797 1.04688 20.0229 1.04688C9.26604 1.04688 0.545898 9.76702 0.545898 20.5239C0.545898 31.2807 9.26604 40.0009 20.0229 40.0009Z" stroke="#FF4438"/>
<path d="M19.9917 30.2268C14.738 30.0774 10.5566 25.7755 10.5566 20.5197C10.5566 15.2639 14.738 10.9619 19.9917 10.8125C22.1535 10.8075 24.2538 11.5316 25.9533 12.8677L25.3022 13.6992C23.787 12.5127 21.9161 11.8716 19.9917 11.8794C16.073 11.8843 12.6497 14.5293 11.6561 18.32C10.6624 22.1106 12.3479 26.0948 15.7603 28.0215C19.1726 29.9482 23.4548 29.3334 26.1874 26.5246C28.9199 23.7158 29.4165 19.4183 27.3966 16.0603C27.2449 15.8112 27.324 15.4863 27.5731 15.3347C27.8222 15.1831 28.147 15.2621 28.2987 15.5112C30.1065 18.5078 30.1606 22.2458 28.4402 25.2935C26.7198 28.3412 23.4915 30.2263 19.9917 30.2268Z" fill="#FF4438" stroke="#FF4438" stroke-width="0.14"/>
<path d="M19.9835 24.6481L14.626 19.2984L15.3712 18.5454L19.9757 23.1499L31.1144 11.6504L31.8752 12.3877L19.9835 24.6481Z" fill="#FF4438" stroke="#FF4438" stroke-width="0.14"/>
</g>
<defs>
<clipPath id="clip0">
<rect width="40" height="40" fill="white" transform="translate(0 0.5)"/>
</clipPath>
</defs>
</svg>
