<svg xmlns="http://www.w3.org/2000/svg" xmlns:xlink="http://www.w3.org/1999/xlink" width="65px" height="65px" viewBox="0 0 65 65"><title>Asset 130</title><desc>Created with Sketch.</desc><g id="Design" stroke="none" stroke-width="1" fill="none" fill-rule="evenodd"><g id="Home_Design-v1" transform="translate(-344.000000, -3854.000000)" stroke="#FF182F" stroke-width="1.42"><g id="Asset-130" transform="translate(344.000000, 3854.000000)"><circle id="Oval" cx="32.5509804" cy="32.5509804" r="31.6460784"></circle><path d="M29.3137255,43.9705882 C25.3829684,42.0658682 22.831177,38.1400354 22.6862745,33.7745098 C22.6879703,31.0814553 23.6868307,28.4844184 25.4901961,26.4843137" id="Path"></path><path d="M29.4539216,48.75 L29.4539216,43.6519608 C29.4539216,41.9535062 30.8270501,40.5746655 32.5254902,40.5676471 L32.5254902,40.5676471 C33.3479002,40.5471422 34.1444221,40.8560367 34.7379783,41.4256592 C35.3315345,41.9952816 35.6729323,42.778423 35.6862745,43.6009804 L35.6862745,48.6990196" id="Path"></path><polygon id="Rectangle" transform="translate(30.041691, 25.688039) rotate(-45.000000) translate(-30.041691, -25.688039) " points="26.7343381 16.7409798 33.3490439 16.7409798 33.3490439 34.6350975 26.7343381 34.6350975"></polygon><line x1="19.4872549" y1="17.3333333" x2="22.5715686" y2="20.4176471" id="Path"></line><line x1="24.7764706" y1="18.2127451" x2="21.6921569" y2="15.1284314" id="Path"></line><line x1="32.2578431" y1="36.0941176" x2="40.4529412" y2="27.8990196" id="Path"></line><line x1="18.1362745" y1="18.4676471" x2="22.8264706" y2="13.777451" id="Path"></line><line x1="34.6284314" y1="38.4647059" x2="42.8235294" y2="30.2696078" id="Path"></line><line x1="35.622549" y1="44.6333333" x2="46.9401961" y2="44.6333333" id="Path"></line><line x1="49.8333333" y1="49.0686275" x2="19.5" y2="49.0686275" id="Path"></line></g></g></g></svg>