<svg width="62" height="62" viewBox="0 0 62 62" fill="none" xmlns="http://www.w3.org/2000/svg">
<path d="M31 61C47.5685 61 61 47.5685 61 31C61 14.4315 47.5685 1 31 1C14.4315 1 1 14.4315 1 31C1 47.5685 14.4315 61 31 61Z" stroke="#FF4438"/>
<path fill-rule="evenodd" clip-rule="evenodd" d="M42.3553 20.5222C43.7608 21.3488 44.8551 22.6157 45.4685 24.1269L45.4694 24.1291C47.7503 29.7989 45.0549 34.5831 41.5768 38.0255C38.1012 41.4655 33.6879 43.7427 32.0164 44.5359C31.3848 44.849 30.6426 44.8477 30.0118 44.532L30.0038 44.528L30.0038 44.5279C28.2286 43.6128 23.2584 40.8545 19.6858 36.9718C17.8975 35.0283 16.4096 32.7501 15.8913 30.2296C15.3661 27.6753 15.8536 24.949 17.8773 22.1904C18.4478 21.4069 19.1832 20.7583 20.0317 20.2901C23.5714 18.1955 28.0375 18.7146 30.9993 21.479C34.0807 18.5964 38.7779 18.1619 42.3553 20.5222ZM41.544 21.784C38.3611 19.6736 34.1128 20.2123 31.5573 23.0502L31.0005 23.6685L30.4431 23.0508C27.9838 20.3253 23.9435 19.7126 20.7867 21.5864L20.7759 21.5928L20.7649 21.5988C20.1046 21.9614 19.5325 22.4652 19.0892 23.0743L19.0875 23.0766L19.0875 23.0766C17.2999 25.5129 16.9253 27.8109 17.3606 29.9275C17.8028 32.0783 19.0983 34.118 20.7896 35.9561C24.1734 39.6336 28.942 42.2927 30.6865 43.1922C30.8965 43.2961 31.1432 43.2955 31.3529 43.1906L31.3671 43.1835L31.3672 43.1836C32.987 42.4154 37.2237 40.2236 40.5217 36.9594C43.8215 33.6934 46.0252 29.5313 44.0782 24.6901C43.5866 23.4795 42.7082 22.4656 41.5801 21.8065L41.5617 21.7957L41.544 21.784Z" fill="#FF4438"/>
</svg>
